<svg xmlns="http://www.w3.org/2000/svg" height="48" viewBox="0 -960 960 960" width="48"><path d="M255.856-121.154q-22.306 0-38.504-16.198-16.198-16.198-16.198-38.434V-624.56q0-22.236 16.198-38.434 16.198-16.199 38.674-16.199h89.32v-24.615q0-56.731 39.281-95.885 39.282-39.153 95.693-39.153t95.907 39.167q39.496 39.168 39.496 95.871v24.615h88.394q22.333 0 38.531 16.199 16.198 16.198 16.198 38.434v448.774q0 22.236-16.198 38.434-16.198 16.198-38.504 16.198H255.856Zm.105-30.192h448.078q9.23 0 16.923-7.692 7.692-7.693 7.692-16.923v-448.424q0-9.231-7.692-16.923Q713.269-649 704.039-649h-88.5v104.461q0 6.847-4.401 11.193-4.4 4.346-11.327 4.346-6.926 0-10.696-4.346-3.769-4.346-3.769-11.193V-649H375.539v104.461q0 6.847-4.401 11.193-4.4 4.346-11.327 4.346-6.926 0-10.696-4.346-3.769-4.346-3.769-11.193V-649h-89.385q-9.23 0-16.923 7.692-7.692 7.692-7.692 16.923v448.424q0 9.23 7.692 16.923 7.693 7.692 16.923 7.692Zm119.578-527.847h209.807v-24.615q0-44.269-30.407-74.557-30.406-30.289-74.807-30.289t-74.497 30.299q-30.096 30.298-30.096 74.547v24.615ZM231.346-151.346V-649v497.654Z"/></svg>